<svg width="270" height="270" viewBox="0 0 270 270" fill="none" xmlns="http://www.w3.org/2000/svg">
<path d="M231.082 226.352C236.677 218.641 240.737 209.63 242.725 199.676C250.105 162.727 226.133 126.791 189.184 119.412C152.235 112.033 116.3 136.005 108.921 172.953C106.933 182.907 107.221 192.787 109.425 202.055L231.082 226.351V226.352Z" fill="#E2E2E2"/>
<path d="M239.152 160.923C233.062 161.374 224.436 160.853 212.809 157.7C189.995 151.511 164.94 132.684 143.594 126.184C127.848 134.635 115.517 149.181 110.281 167.368C117.941 163.205 128.743 159.215 142.729 158.441C173.893 156.716 205.193 172.053 222.895 174.451C230.431 175.473 237.344 174.592 242.799 173.245C241.97 169.006 240.744 164.883 239.152 160.924V160.923Z" fill="#CECECE"/>
<path d="M224.578 202.543C213.716 199.869 179.078 172.404 146.181 173.818C127.792 174.609 115.268 178.1 107.799 181.025C107.23 188.221 107.819 195.301 109.425 202.056L231.082 226.352C236.522 218.854 240.512 210.126 242.556 200.498C236.812 202.363 229.863 203.844 224.578 202.543Z" fill="#CECECE"/>
<path d="M93.5972 64.5832V64.5508C93.5954 64.5562 93.5937 64.5616 93.5928 64.567C93.591 64.5616 93.5891 64.5562 93.5882 64.5508V64.5832C93.1643 66.1213 92.1842 67.2211 90.6479 67.8826C92.1842 68.5441 93.1643 69.6439 93.5882 71.182V71.2144C93.59 71.209 93.5919 71.2036 93.5928 71.1982C93.5946 71.2036 93.5963 71.209 93.5972 71.2144V71.182C94.0211 69.6439 95.0012 68.5441 96.5375 67.8826C95.0012 67.2211 94.0211 66.1213 93.5972 64.5832Z" fill="#BABABA"/>
<path d="M213.26 38.6144V38.582C213.258 38.5874 213.256 38.5928 213.255 38.5982C213.253 38.5928 213.251 38.5874 213.251 38.582V38.6144C212.827 40.1525 211.847 41.2523 210.31 41.9138C211.847 42.5753 212.827 43.6751 213.251 45.2132V45.2456C213.252 45.2402 213.254 45.2348 213.255 45.2294C213.257 45.2348 213.259 45.2402 213.26 45.2456V45.2132C213.684 43.6751 214.664 42.5753 216.2 41.9138C214.664 41.2523 213.684 40.1525 213.26 38.6144Z" fill="#BABABA"/>
<path d="M229.83 96.4191V96.3867C229.829 96.3921 229.827 96.3975 229.826 96.4029C229.824 96.3975 229.822 96.3921 229.821 96.3867V96.4191C229.398 97.9572 228.417 99.057 226.881 99.7185C228.417 100.38 229.398 101.48 229.821 103.018V103.05C229.823 103.045 229.825 103.04 229.826 103.034C229.828 103.04 229.83 103.045 229.83 103.05V103.018C230.254 101.48 231.234 100.38 232.771 99.7185C231.234 99.057 230.254 97.9572 229.83 96.4191Z" fill="#BABABA"/>
<path d="M25.1659 158.462V158.43C25.1641 158.435 25.1623 158.44 25.1614 158.446C25.1596 158.44 25.1578 158.435 25.1569 158.43V158.462C24.733 160 23.7529 161.1 22.2166 161.761C23.7529 162.423 24.733 163.523 25.1569 165.061V165.093C25.1587 165.088 25.1605 165.082 25.1614 165.077C25.1632 165.082 25.165 165.088 25.1659 165.093V165.061C25.5898 163.523 26.5699 162.423 28.1062 161.761C26.5699 161.1 25.5898 160 25.1659 158.462Z" fill="#BABABA"/>
<path d="M237.785 49.6126V49.5469C237.783 49.5586 237.779 49.5685 237.776 49.5802C237.774 49.5685 237.77 49.5586 237.767 49.5469V49.6126C236.92 52.6879 234.959 54.8884 231.887 56.2114C234.959 57.5344 236.919 59.7349 237.767 62.8102V62.8759C237.77 62.8642 237.774 62.8543 237.776 62.8426C237.779 62.8543 237.783 62.8642 237.785 62.8759V62.8102C238.633 59.7349 240.593 57.5344 243.666 56.2114C240.593 54.8884 238.634 52.6879 237.785 49.6126Z" fill="#BABABA"/>
<path d="M85.9833 135.066V135C85.9806 135.012 85.977 135.022 85.9743 135.033C85.9716 135.022 85.968 135.012 85.9653 135V135.066C85.1175 138.141 83.1573 140.342 80.0847 141.665C83.1573 142.988 85.1166 145.188 85.9653 148.263V148.329C85.968 148.317 85.9716 148.307 85.9743 148.296C85.977 148.307 85.9806 148.317 85.9833 148.329V148.263C86.8311 145.188 88.7913 142.988 91.8639 141.665C88.7913 140.342 86.832 138.141 85.9833 135.066Z" fill="#BABABA"/>
<path d="M70.2909 35.3137V35.248C70.2882 35.2597 70.2846 35.2696 70.2819 35.2813C70.2792 35.2696 70.2756 35.2597 70.2729 35.248V35.3137C69.4251 38.389 67.4649 40.5895 64.3923 41.9125C67.4649 43.2355 69.4242 45.436 70.2729 48.5113V48.577C70.2756 48.5653 70.2792 48.5554 70.2819 48.5437C70.2846 48.5554 70.2882 48.5653 70.2909 48.577V48.5113C71.1387 45.436 73.0989 43.2355 76.1715 41.9125C73.0989 40.5895 71.1396 38.389 70.2909 35.3137Z" fill="#BABABA"/>
<path d="M167.31 75.4272C181.152 75.4272 192.373 64.206 192.373 50.364C192.373 36.522 181.152 25.3008 167.31 25.3008C153.468 25.3008 142.247 36.522 142.247 50.364C142.247 64.206 153.468 75.4272 167.31 75.4272Z" fill="#E2E2E2"/>
<path d="M172.25 25.788C172.399 29.5527 172.146 33.4803 170.891 36.129C167.747 42.7656 162.857 44.8617 151.679 50.3634C147.1 52.617 145.227 56.8173 144.608 60.9933C146.389 64.7895 149.093 68.0655 152.431 70.5324C153.185 67.3779 154.61 63.867 157.267 60.9294C163.904 53.5935 174.034 60.5802 185.753 54.642C188.859 53.0679 190.894 50.4633 192.208 47.4843C190.967 36.6393 182.806 27.8976 172.249 25.7871L172.25 25.788Z" fill="#BABABA"/>
<path d="M49.7186 133.2C61.1917 133.2 70.4924 123.899 70.4924 112.426C70.4924 100.953 61.1917 91.6523 49.7186 91.6523C38.2456 91.6523 28.9448 100.953 28.9448 112.426C28.9448 123.899 38.2456 133.2 49.7186 133.2Z" fill="#BABABA"/>
<path d="M18.2674 130.874C16.4242 130.874 15.346 130.468 14.9806 129.638C14.4595 128.453 15.5728 126.752 18.3835 124.439C20.8855 122.38 24.6889 119.891 29.3824 117.239C29.5984 117.116 29.8729 117.193 29.9953 117.409C30.1177 117.625 30.0412 117.899 29.8252 118.022C25.1767 120.649 21.4174 123.108 18.955 125.134C15.5674 127.922 15.6871 129.008 15.8041 129.275C15.9463 129.599 17.1685 131.081 27.2611 128.42C34.3162 126.561 43.345 123.275 52.6834 119.167C62.0218 115.061 70.5457 110.627 76.6846 106.683C85.4659 101.043 85.2004 99.1413 85.0573 98.8173C84.9412 98.5527 84.2302 97.7373 79.9543 98.3295C76.8448 98.7606 72.5518 99.8433 67.5406 101.462C67.3039 101.539 67.0501 101.409 66.9745 101.173C66.898 100.936 67.0276 100.682 67.2643 100.607C72.325 98.9721 76.6702 97.8759 79.831 97.4385C83.3842 96.9462 85.3633 97.2792 85.8808 98.4555C86.2984 99.405 85.6756 100.67 83.9764 102.324C82.4797 103.78 80.1901 105.502 77.1706 107.441C70.993 111.409 62.425 115.866 53.0452 119.992C43.6654 124.117 34.5898 127.419 27.4897 129.29C24.0193 130.205 21.2023 130.73 19.1179 130.848C18.8182 130.865 18.5338 130.874 18.2665 130.874H18.2674Z" fill="#8C8C8C"/>
<path d="M258.75 243.203C225.799 213.505 182.17 195.428 134.319 195.428C86.4676 195.428 42.8383 213.505 9.88745 243.203" fill="white"/>
<path d="M258.75 243.654C258.643 243.654 258.535 243.616 258.449 243.538C250.224 236.126 241.291 229.415 231.899 223.592C222.405 217.707 212.332 212.663 201.958 208.598C180.418 200.158 157.66 195.879 134.319 195.879C110.977 195.879 88.2199 200.158 66.6793 208.598C56.3059 212.663 46.2322 217.708 36.739 223.592C27.3457 229.414 18.4132 236.125 10.189 243.538C10.0045 243.705 9.72009 243.689 9.55359 243.505C9.38709 243.32 9.40239 243.036 9.58689 242.869C17.8516 235.421 26.8273 228.678 36.2656 222.827C45.8056 216.914 55.9279 211.845 66.3517 207.76C87.9967 199.279 110.865 194.979 134.32 194.979C157.775 194.979 180.642 199.279 202.288 207.76C212.711 211.845 222.835 216.914 232.374 222.827C241.812 228.677 250.788 235.421 259.052 242.869C259.237 243.036 259.252 243.32 259.086 243.505C258.997 243.603 258.874 243.653 258.751 243.653L258.75 243.654Z" fill="black"/>
<path d="M28.1062 228.734V221.151C28.1062 221.151 38.197 210.147 50.3002 203.361C71.0812 191.711 81.7444 193.113 81.7444 193.113L96.5305 199.272C96.5305 199.272 86.7511 213.046 66.988 223.039C52.5709 230.33 40.3822 233.115 40.3822 233.115" fill="white"/>
<path d="M40.3812 233.566C40.176 233.566 39.9906 233.424 39.9429 233.215C39.8871 232.973 40.0392 232.732 40.2813 232.676C40.4028 232.648 52.587 229.818 66.7845 222.638C76.9329 217.506 84.3795 211.356 88.839 207.101C92.6559 203.46 94.9959 200.546 95.8239 199.465L81.6309 193.552C81.2268 193.513 78.5853 193.318 73.8351 194.323C65.2104 196.148 56.3958 200.458 50.5206 203.752C39.3138 210.035 29.7234 220.082 28.557 221.326V228.733C28.557 228.981 28.3554 229.183 28.107 229.183C27.8586 229.183 27.657 228.981 27.657 228.733V221.149C27.657 221.037 27.6993 220.928 27.7749 220.845C27.8766 220.734 38.0529 209.709 50.0805 202.966C56.0331 199.629 64.9665 195.265 73.7235 193.426C79.0011 192.318 81.6921 192.651 81.8037 192.666C81.8433 192.671 81.8811 192.681 81.918 192.697L96.7041 198.855C96.8301 198.907 96.9255 199.015 96.9633 199.147C97.0011 199.278 96.9768 199.42 96.8976 199.531C96.8733 199.566 94.3713 203.064 89.4816 207.732C84.9753 212.034 77.4495 218.252 67.1922 223.44C52.8912 230.672 40.6053 233.524 40.4829 233.552C40.4496 233.56 40.4154 233.564 40.3821 233.564L40.3812 233.566Z" fill="black"/>
<path d="M34.2414 221.758C34.0614 221.758 33.8913 221.649 33.822 221.471C33.7311 221.24 33.8454 220.979 34.0767 220.888C34.1064 220.877 37.2573 219.631 52.3143 212.678C67.302 205.758 73.0512 199.5 73.107 199.438C73.2735 199.253 73.5579 199.239 73.7424 199.404C73.9269 199.571 73.9422 199.855 73.7757 200.04C73.7163 200.105 72.2898 201.676 68.9661 204.131C65.9151 206.384 60.6141 209.838 52.6914 213.496C37.5822 220.472 34.5267 221.678 34.4043 221.726C34.3503 221.747 34.2954 221.757 34.2405 221.757L34.2414 221.758Z" fill="black"/>
<path d="M168.019 198.483C168.019 198.483 179.1 195.43 180.684 195.43C185.359 195.43 192.753 196.28 209.661 204.122C226.571 211.964 236.656 220.57 236.656 220.57L242.686 230.261C242.686 230.261 226.535 232.332 204.395 223.755C182.254 215.178 171.226 205.866 171.226 205.866" fill="white"/>
<path d="M237.918 230.932C236.261 230.932 234.209 230.868 231.808 230.673C225.569 230.165 215.72 228.625 204.234 224.175C197.903 221.722 188.434 217.615 179.273 211.978C173.783 208.599 170.965 206.234 170.937 206.211C170.747 206.05 170.723 205.766 170.884 205.577C171.044 205.387 171.329 205.363 171.519 205.523C171.546 205.546 174.328 207.879 179.769 211.226C184.79 214.315 193.166 218.923 204.559 223.337C215.946 227.748 225.702 229.273 231.882 229.776C236.949 230.188 240.491 230 241.923 229.883L236.313 220.869C235.506 220.194 225.509 211.967 209.473 204.53C201.875 201.006 195.659 198.632 190.472 197.271C185.774 196.038 182.774 195.88 180.685 195.88C179.435 195.88 171.205 198.074 168.14 198.918C167.901 198.984 167.652 198.843 167.586 198.604C167.521 198.364 167.661 198.116 167.901 198.05C169.041 197.736 179.086 194.98 180.685 194.98C185.795 194.98 193.257 196.018 209.852 203.714C218.614 207.778 225.51 212.048 229.753 214.915C234.356 218.025 236.924 220.207 236.949 220.229C236.985 220.259 237.015 220.295 237.039 220.333L243.069 230.024C243.15 230.154 243.159 230.316 243.094 230.455C243.028 230.593 242.897 230.689 242.745 230.708C242.637 230.721 240.934 230.934 237.918 230.934V230.932Z" fill="black"/>
<path d="M229.826 220.946C229.81 220.946 229.794 220.946 229.777 220.943C229.651 220.93 217.096 219.511 203.254 213.366C199.262 211.594 193.435 208.745 188.345 205.235C185.283 203.123 183.954 201.787 183.899 201.731C183.724 201.554 183.726 201.269 183.904 201.095C184.081 200.92 184.365 200.922 184.54 201.099C184.592 201.152 189.942 206.472 203.619 212.544C217.328 218.63 229.75 220.036 229.874 220.049C230.12 220.076 230.299 220.299 230.272 220.545C230.247 220.776 230.052 220.947 229.826 220.947V220.946Z" fill="black"/>
</svg>
